<?xml version="1.0" standalone="no"?>
<!DOCTYPE svg PUBLIC "-//W3C//DTD SVG 20010904//EN"
 "http://www.w3.org/TR/2001/REC-SVG-20010904/DTD/svg10.dtd">
<svg version="1.0" xmlns="http://www.w3.org/2000/svg"
 width="494.000000pt" height="716.000000pt" viewBox="0 0 494.000000 716.000000"
 preserveAspectRatio="xMidYMid meet">

<g transform="translate(0.000000,716.000000) scale(0.100000,-0.100000)"
fill="current" stroke="none">
<path d="M2140 7110 c-132 -20 -236 -44 -435 -100 -77 -22 -193 -51 -257 -64
-65 -14 -152 -39 -195 -56 -275 -106 -584 -380 -808 -715 -86 -129 -223 -407
-275 -560 -168 -490 -181 -939 -39 -1370 97 -293 355 -723 669 -1114 371 -461
441 -596 486 -931 26 -200 17 -254 -61 -360 -83 -113 -84 -195 -7 -347 l21
-41 -21 -18 c-27 -25 -66 -108 -74 -160 -5 -33 0 -55 25 -112 17 -39 31 -79
31 -89 0 -10 -14 -35 -31 -56 -103 -125 -45 -289 152 -423 57 -39 76 -60 102
-108 111 -209 379 -368 730 -432 117 -22 419 -25 527 -5 264 47 499 170 816
425 200 160 248 225 248 331 0 43 -8 77 -28 121 l-28 61 25 27 c54 58 62 208
17 301 l-22 46 25 27 c74 80 56 255 -40 380 -24 33 -26 39 -20 121 13 202 78
427 187 646 77 156 178 314 394 617 349 491 503 780 585 1101 54 207 66 316
66 587 -1 267 -14 394 -62 572 l-25 97 -167 81 c-167 82 -279 120 -356 120
-55 0 -108 -17 -231 -74 -56 -25 -127 -51 -159 -57 -72 -13 -72 -13 -206 172
-203 280 -280 320 -657 339 -106 5 -208 15 -234 24 -107 32 -172 93 -197 182
-6 21 -11 97 -11 168 l0 129 -70 73 c-82 87 -113 144 -141 262 -26 109 -39
140 -74 175 -32 31 -24 31 -175 7z m150 -79 c0 -10 11 -62 25 -115 34 -134 82
-231 150 -299 l55 -55 0 -88 c0 -179 33 -281 111 -348 74 -63 164 -87 394
-106 318 -26 359 -44 551 -234 89 -89 130 -137 152 -181 35 -70 53 -88 105
-105 60 -19 117 -4 249 63 121 62 122 62 207 61 77 0 95 -4 166 -36 44 -20
103 -42 130 -49 71 -17 102 -35 120 -69 27 -51 -6 -88 -111 -124 -38 -13 -100
-45 -139 -70 -38 -26 -118 -70 -177 -99 l-107 -52 -39 -85 c-21 -47 -47 -106
-57 -132 -22 -59 -31 -60 -143 -14 -140 58 -369 201 -532 331 -80 64 -100 75
-141 75 -55 0 -113 -43 -177 -133 -67 -92 -92 -117 -141 -142 l-34 -17 -59 59
c-98 97 -179 234 -293 498 -69 159 -141 300 -192 377 -68 101 -199 221 -380
346 -89 62 -179 127 -201 145 l-39 33 27 39 c15 22 32 55 38 74 29 83 4 206
-57 282 l-30 37 132 42 c191 60 184 58 298 84 129 30 139 31 139 7z m-673
-182 c46 -17 102 -60 123 -94 32 -51 27 -105 -15 -155 -19 -23 -35 -48 -35
-56 0 -18 0 -18 -58 5 -200 79 -360 -20 -323 -199 6 -30 14 -65 17 -76 5 -20
3 -21 -43 -13 -26 4 -88 19 -138 34 -98 28 -140 27 -192 -5 -75 -45 -122 -151
-153 -343 -32 -194 -23 -190 36 17 42 144 76 210 129 249 38 27 44 29 110 23
39 -3 110 -17 160 -31 108 -30 160 -32 170 -7 4 9 6 71 6 137 -2 153 1 159 85
145 143 -23 244 -76 424 -221 366 -294 393 -329 547 -699 82 -198 132 -281
266 -444 103 -125 207 -269 207 -286 0 -4 -17 -10 -38 -14 -50 -8 -70 -31 -78
-92 -4 -27 -11 -54 -16 -61 -5 -6 -65 -30 -134 -53 -80 -27 -128 -48 -134 -60
-12 -22 -12 -97 -1 -155 l7 -40 7 30 c3 17 9 54 12 83 8 63 25 77 104 86 67 7
150 46 177 83 12 15 26 45 33 65 13 38 19 42 86 54 22 4 57 13 78 22 32 12 38
19 35 40 -2 17 -16 35 -38 50 -83 54 -89 74 -35 110 20 12 57 50 83 84 73 97
133 158 154 158 34 0 111 -46 283 -169 196 -141 298 -203 380 -231 154 -53
245 -1 291 166 16 60 21 67 58 86 23 12 85 50 140 85 146 95 293 163 352 163
38 0 54 -565 21 -775 -69 -441 -240 -831 -527 -1195 -96 -122 -159 -216 -317
-470 -265 -425 -314 -558 -318 -869 l-1 -155 -44 -38 c-53 -47 -146 -93 -299
-147 -63 -23 -116 -41 -118 -41 -9 0 11 99 32 160 13 36 50 130 84 209 111
257 220 666 256 951 8 68 15 130 15 137 0 21 -23 15 -100 -23 -53 -27 -100
-63 -177 -138 l-105 -100 -81 -1 c-69 -1 -95 -6 -164 -34 -117 -48 -90 -73 32
-31 32 11 69 20 82 20 22 0 23 -4 23 -64 0 -36 4 -68 10 -71 20 -12 104 36
173 101 70 65 123 104 141 104 28 0 -40 -280 -129 -535 -162 -460 -184 -525
-206 -610 -12 -49 -27 -93 -32 -96 -21 -14 -192 -29 -339 -29 -85 0 -247 9
-359 20 -112 11 -234 22 -270 26 l-66 6 -6 106 c-13 217 -54 361 -199 691
-138 314 -190 485 -204 672 l-7 84 36 17 c19 9 38 26 42 37 10 33 51 26 88
-13 18 -19 42 -37 54 -40 30 -9 82 15 122 58 28 29 42 36 73 36 32 0 38 -3 38
-21 0 -46 26 -103 66 -148 48 -52 99 -87 109 -71 9 15 -12 46 -72 105 -41 39
-54 58 -49 71 9 25 -12 119 -33 145 -16 20 -19 20 -53 6 -20 -8 -61 -36 -92
-61 -31 -25 -61 -46 -66 -46 -6 0 -30 16 -55 35 -63 47 -117 55 -211 29 -18
-5 -25 4 -48 58 -15 35 -35 71 -43 81 -26 28 -61 21 -83 -15 -25 -41 -25 -73
-1 -145 11 -32 32 -121 46 -198 66 -358 192 -745 321 -987 30 -57 68 -131 84
-166 34 -70 56 -190 46 -245 l-7 -37 -57 0 c-170 1 -367 100 -421 213 -23 49
-28 92 -41 357 -11 227 -27 305 -94 445 -56 120 -148 253 -332 485 -146 185
-350 480 -470 682 -246 414 -336 743 -305 1105 20 242 71 453 167 692 220 548
536 911 974 1120 163 78 274 104 337 80z m-229 -5090 c125 -110 458 -225 792
-273 415 -60 736 -35 1095 87 111 38 253 95 325 132 l48 24 18 -37 c10 -21 20
-68 22 -109 4 -64 1 -77 -24 -124 -60 -109 -225 -201 -459 -255 -393 -90
-1171 -57 -1510 63 -176 63 -360 185 -391 260 -20 47 -17 131 6 207 12 36 23
66 26 66 3 0 27 -18 52 -41z m77 -512 c226 -78 435 -127 695 -164 181 -25 659
-25 818 0 177 29 344 73 491 131 75 29 150 56 168 60 30 7 31 6 38 -33 15 -88
-22 -183 -92 -239 -99 -77 -224 -116 -603 -186 -252 -46 -293 -49 -441 -26
-146 22 -226 25 -280 10 -70 -19 -385 36 -595 105 -130 43 -254 105 -310 157
-51 47 -74 109 -74 200 l0 59 28 -15 c15 -7 86 -34 157 -59z m-165 -293 c78
-45 247 -113 368 -149 495 -146 1095 -161 1572 -40 118 30 287 88 353 122 27
13 52 21 55 18 4 -4 7 -39 6 -78 0 -87 -22 -134 -87 -194 -116 -107 -279 -151
-737 -198 -446 -46 -615 -44 -886 10 -224 45 -412 120 -537 215 -72 54 -107
97 -142 172 -24 50 -35 148 -17 148 4 0 27 -12 52 -26z m540 -569 c405 -62
490 -69 795 -70 292 0 374 9 543 55 l67 18 -40 -34 c-56 -48 -215 -127 -315
-158 -146 -44 -260 -59 -445 -59 -243 0 -437 37 -610 117 -103 47 -269 165
-235 166 8 0 116 -16 240 -35z"/>
<path d="M2143 6970 c-29 -14 -108 -39 -177 -54 -68 -16 -129 -32 -135 -35 -7
-5 -2 -23 14 -54 56 -111 56 -230 0 -303 -14 -18 -25 -35 -25 -38 0 -2 82 -67
183 -142 207 -156 343 -286 412 -392 26 -41 108 -198 182 -350 129 -266 202
-392 276 -477 l34 -40 40 28 c22 15 72 65 111 111 51 60 86 91 124 110 92 46
130 35 238 -67 59 -57 97 -83 175 -121 55 -27 150 -81 210 -121 107 -70 158
-95 196 -95 11 0 19 6 19 13 0 6 13 40 30 74 58 123 174 218 375 307 240 105
219 93 203 119 -21 33 -91 64 -195 86 -51 11 -104 26 -120 34 -32 17 -69 7
-230 -67 -148 -68 -245 -78 -316 -32 -15 10 -48 53 -74 95 -33 55 -86 114
-186 212 l-140 137 -166 17 c-388 39 -548 92 -654 215 -60 71 -80 135 -85 280
l-4 125 -52 55 c-85 89 -132 192 -151 327 -6 44 -11 53 -33 61 -21 7 -38 3
-79 -18z m98 -282 c51 -116 91 -183 121 -202 15 -9 18 -26 18 -101 0 -250 108
-392 360 -474 79 -26 231 -54 450 -81 195 -25 172 -10 328 -214 58 -76 132
-164 164 -196 49 -49 66 -60 104 -66 70 -10 161 1 239 29 39 14 104 37 145 52
61 22 88 26 142 23 37 -2 73 -9 80 -16 19 -19 -33 -58 -175 -133 -65 -34 -136
-80 -158 -101 -41 -40 -78 -107 -79 -141 0 -14 -5 -17 -22 -11 -85 26 -318
171 -463 287 -55 44 -119 89 -144 100 -95 42 -210 3 -334 -113 l-75 -70 -45
41 c-80 69 -157 200 -243 410 -25 61 -63 140 -86 177 -122 201 -326 410 -582
597 l-27 20 16 67 c15 67 14 101 -10 214 -7 30 -6 31 47 43 29 6 69 20 88 30
l34 19 29 -39 c16 -22 51 -89 78 -151z"/>
</g>
</svg>
