<?xml version="1.0" standalone="no"?>
<!DOCTYPE svg PUBLIC "-//W3C//DTD SVG 20010904//EN"
 "http://www.w3.org/TR/2001/REC-SVG-20010904/DTD/svg10.dtd">
<svg version="1.0" xmlns="http://www.w3.org/2000/svg"
 width="1249.000000pt" height="628.000000pt" viewBox="0 0 1249.000000 628.000000"
 preserveAspectRatio="xMidYMid meet">

<g transform="translate(0.000000,628.000000) scale(0.100000,-0.100000)"
fill="current" stroke="none">
<path d="M390 3165 l0 -2585 805 0 805 0 0 940 0 940 560 0 560 0 13 -23 c13
-20 93 -160 578 -1018 74 -130 211 -372 304 -537 l170 -301 595 0 595 0 -87
28 c-393 128 -683 467 -748 874 -20 121 -8 341 23 447 103 344 375 643 785
860 34 18 62 37 62 42 0 5 -27 43 -61 86 -258 327 -369 612 -339 876 51 444
428 758 962 801 l88 7 -6 27 c-12 53 -78 209 -130 311 -105 202 -273 402 -431
511 -91 63 -270 149 -390 188 -94 31 -288 71 -443 93 -62 9 -639 13 -2177 15
l-2093 4 0 -2586z m3548 1559 c226 -45 389 -199 449 -425 23 -88 23 -291 0
-378 -45 -169 -152 -298 -308 -375 -160 -79 -122 -76 -1160 -76 l-919 0 0 635
0 635 930 0 c802 0 942 -2 1008 -16z"/>
<path d="M6120 5175 l0 -575 54 0 c30 0 107 -7 170 -15 356 -47 603 -218 698
-485 20 -57 23 -83 23 -225 0 -154 -1 -163 -32 -248 -101 -283 -349 -506 -663
-597 -41 -12 -81 -23 -88 -26 -7 -2 47 -72 129 -166 268 -308 627 -749 701
-859 15 -24 17 -20 116 176 55 110 115 241 133 290 31 83 33 99 33 210 1 111
-1 125 -27 180 -35 74 -73 115 -138 145 l-49 23 0 54 0 53 270 0 270 0 0 790
0 790 594 0 c613 0 773 -7 961 -40 329 -58 556 -171 765 -380 238 -237 364
-523 399 -900 38 -407 -25 -814 -170 -1089 -65 -124 -127 -207 -231 -306 -200
-193 -440 -298 -812 -357 -121 -20 -181 -22 -818 -25 l-688 -5 0 503 c0 434
-2 501 -14 489 -48 -50 -429 -805 -417 -827 18 -33 197 -240 276 -318 113
-112 205 -182 316 -240 110 -57 187 -75 319 -75 158 0 315 40 473 119 42 21
77 36 77 34 0 -18 -110 -210 -153 -268 -119 -162 -306 -317 -472 -393 l-70
-32 845 3 c914 4 930 5 1230 63 452 88 922 321 1229 610 575 541 831 1548 635
2502 -93 455 -307 870 -615 1196 -392 414 -952 671 -1657 761 -257 32 -408 35
-1999 35 l-1603 0 0 -575z"/>
<path d="M5895 4321 c-165 -43 -255 -197 -242 -411 12 -191 110 -365 358 -632
50 -54 96 -98 102 -98 30 0 117 51 169 99 168 154 203 367 107 656 -55 167
-160 305 -272 359 -58 29 -166 42 -222 27z"/>
<path d="M5511 2595 c-131 -111 -209 -235 -231 -367 -19 -111 -8 -320 24 -441
31 -122 89 -253 152 -349 102 -154 271 -291 426 -345 107 -37 252 -42 373 -14
129 31 281 109 383 197 l34 29 -252 334 c-259 343 -427 557 -584 741 -94 110
-245 270 -255 270 -3 0 -35 -25 -70 -55z"/>
<path d="M6695 1043 c-296 -251 -476 -367 -673 -433 l-87 -29 770 0 770 -1
-82 34 c-156 64 -274 161 -488 401 -54 61 -100 111 -104 112 -3 1 -51 -37
-106 -84z"/>
</g>
</svg>
